# xmcd
#
# Track frame offsets:
#	150
#	11632
#	27346
#	41427
#	55430
#	71100
#	84892
#	95399
#	106074
#	117101
#	130158
#	142083
#	156000
#	167923
#	181134
#	192837
#	204344
#	219192
#	229993
#	242044
#	256567
#	268550
#	280430
#	292296
#
# Disc length: 4065 seconds
#
# Revision: 1
# Processed by: cddbd v1.5.2PL0 Copyright (c) Steve Scherf et al.
# Submitted via: audiograbber 1.83.01
#
DISCID=560fdf18
DTITLE=Cliff Carlisle - Cliff Carlisle - Vol.2 - When I Feel Froggie I'm Gonna 
DTITLE=Hop - CD 4
DYEAR=2006
DGENRE=Country
TTITLE0=When I Feel Froggie I'm Gonna Hop
TTITLE1=Shufflin' Gal
TTITLE2=When I'm Dead and Gone
TTITLE3=Just a Wayward Boy
TTITLE4=There's a Lamp in the Window, Tonight
TTITLE5=Ridin' That Lonesome Train
TTITLE6=A Little Bit of Lovin' from You
TTITLE7=Blue Dreams
TTITLE8=Rocky Road
TTITLE9=Sweet As the Roses of Spring
TTITLE10=The Poor Widow
TTITLE11=Your Saddle Is Empty, Tonight
TTITLE12=Lonely
TTITLE13=The Gal I Left Behind
TTITLE14=Ridin' the Blinds to the Call of the Pines
TTITLE15=When the Old Crow Went Dry
TTITLE16=Deep Sea Blues
TTITLE17=My Little Sadie
TTITLE18=Flag That Train
TTITLE19=Go and Leave Me, If You Wish To
TTITLE20=You'll Never Know
TTITLE21=No Wedding Bells
TTITLE22=I Believe I'm Entitled to You
TTITLE23=She Waits for Me There
EXTD=JSP 7768 - CD 4
EXTT0=
EXTT1=
EXTT2=
EXTT3=
EXTT4=
EXTT5=
EXTT6=
EXTT7=
EXTT8=
EXTT9=
EXTT10=
EXTT11=
EXTT12=
EXTT13=
EXTT14=
EXTT15=
EXTT16=
EXTT17=
EXTT18=
EXTT19=
EXTT20=
EXTT21=
EXTT22=
EXTT23=
PLAYORDER=
